<svg width="967" height="114" viewBox="0 0 967 114" fill="none" xmlns="http://www.w3.org/2000/svg">
<path d="M199.92 19.032V87H187.44V29.88H158.352V87H145.776V19.032H199.92ZM225.03 110.04H212.934V40.344H224.55V46.968H224.838C226.502 44.664 228.71 42.776 231.462 41.304C234.214 39.832 237.318 39.096 240.774 39.096C244.23 39.096 247.366 39.768 250.182 41.112C252.998 42.392 255.398 44.152 257.382 46.392C259.366 48.568 260.902 51.16 261.99 54.168C263.078 57.112 263.622 60.248 263.622 63.576C263.622 66.904 263.078 70.072 261.99 73.08C260.966 76.024 259.462 78.648 257.478 80.952C255.558 83.192 253.158 84.984 250.278 86.328C247.462 87.608 244.262 88.248 240.678 88.248C237.67 88.248 234.758 87.608 231.942 86.328C229.126 85.048 226.886 83.192 225.222 80.76H225.03V110.04ZM251.718 63.576C251.718 61.656 251.43 59.832 250.854 58.104C250.278 56.312 249.414 54.744 248.262 53.4C247.11 52.056 245.67 51 243.942 50.232C242.278 49.4 240.358 48.984 238.182 48.984C236.134 48.984 234.246 49.4 232.518 50.232C230.854 51 229.414 52.056 228.198 53.4C226.982 54.744 226.022 56.312 225.318 58.104C224.678 59.832 224.358 61.656 224.358 63.576C224.358 65.56 224.678 67.448 225.318 69.24C226.022 70.968 226.982 72.504 228.198 73.848C229.414 75.192 230.854 76.248 232.518 77.016C234.246 77.784 236.134 78.168 238.182 78.168C240.358 78.168 242.278 77.784 243.942 77.016C245.67 76.184 247.11 75.096 248.262 73.752C249.414 72.408 250.278 70.872 250.854 69.144C251.43 67.352 251.718 65.496 251.718 63.576ZM321.648 63.576C321.648 67.288 320.976 70.68 319.632 73.752C318.352 76.76 316.56 79.352 314.256 81.528C311.952 83.704 309.232 85.4 306.096 86.616C303.024 87.768 299.696 88.344 296.112 88.344C292.528 88.344 289.168 87.768 286.032 86.616C282.96 85.4 280.272 83.704 277.968 81.528C275.664 79.352 273.84 76.76 272.496 73.752C271.216 70.68 270.576 67.288 270.576 63.576C270.576 59.864 271.216 56.504 272.496 53.496C273.84 50.488 275.664 47.928 277.968 45.816C280.272 43.64 282.96 41.976 286.032 40.824C289.168 39.608 292.528 39 296.112 39C299.696 39 303.024 39.608 306.096 40.824C309.232 41.976 311.952 43.64 314.256 45.816C316.56 47.928 318.352 50.488 319.632 53.496C320.976 56.504 321.648 59.864 321.648 63.576ZM309.744 63.576C309.744 61.656 309.424 59.832 308.784 58.104C308.208 56.312 307.312 54.744 306.096 53.4C304.944 52.056 303.504 51 301.776 50.232C300.112 49.4 298.224 48.984 296.112 48.984C293.936 48.984 292.016 49.4 290.352 50.232C288.688 51 287.28 52.056 286.128 53.4C284.976 54.744 284.08 56.312 283.44 58.104C282.864 59.832 282.576 61.656 282.576 63.576C282.576 65.496 282.864 67.352 283.44 69.144C284.08 70.872 284.976 72.408 286.128 73.752C287.28 75.096 288.688 76.184 290.352 77.016C292.08 77.784 294 78.168 296.112 78.168C298.288 78.168 300.208 77.784 301.872 77.016C303.6 76.184 305.04 75.096 306.192 73.752C307.344 72.408 308.208 70.872 308.784 69.144C309.424 67.352 309.744 65.496 309.744 63.576ZM364.082 39.288C367.602 39.352 370.834 40.024 373.778 41.304C376.786 42.52 379.378 44.216 381.554 46.392C383.73 48.568 385.394 51.16 386.546 54.168C387.762 57.112 388.37 60.312 388.37 63.768C388.37 67.224 387.762 70.424 386.546 73.368C385.394 76.312 383.73 78.872 381.554 81.048C379.442 83.224 376.882 84.952 373.874 86.232C370.93 87.448 367.666 88.088 364.082 88.152V110.232H352.754V88.152C349.298 88.088 346.098 87.448 343.154 86.232C340.21 84.952 337.65 83.224 335.474 81.048C333.362 78.872 331.666 76.312 330.386 73.368C329.17 70.424 328.562 67.224 328.562 63.768C328.562 60.312 329.138 57.112 330.29 54.168C331.506 51.224 333.17 48.664 335.282 46.488C337.458 44.312 340.018 42.584 342.962 41.304C345.97 40.024 349.234 39.352 352.754 39.288V14.424H364.082V39.288ZM376.85 63.768C376.85 61.72 376.562 59.832 375.986 58.104C375.474 56.312 374.674 54.744 373.586 53.4C372.562 52.056 371.25 51 369.65 50.232C368.05 49.4 366.194 48.92 364.082 48.792V78.648C368.37 78.456 371.57 76.984 373.682 74.232C375.794 71.416 376.85 67.928 376.85 63.768ZM340.082 63.768C340.082 67.928 341.138 71.416 343.25 74.232C345.426 76.984 348.594 78.456 352.754 78.648V48.792C350.642 48.856 348.786 49.304 347.186 50.136C345.586 50.904 344.242 51.96 343.154 53.304C342.13 54.648 341.362 56.216 340.85 58.008C340.338 59.8 340.082 61.72 340.082 63.768ZM427.905 76.152C431.937 76.152 435.233 75.352 437.793 73.752C440.417 72.088 441.729 69.592 441.729 66.264C441.729 64.536 441.377 63.064 440.673 61.848C439.969 60.632 439.009 59.64 437.793 58.872C436.577 58.04 435.137 57.464 433.473 57.144C431.809 56.76 430.017 56.568 428.097 56.568H418.017V76.152H427.905ZM405.441 87V19.032H450.081V29.88H418.017V45.72H429.153C432.801 45.72 436.161 46.136 439.233 46.968C442.305 47.736 444.961 48.984 447.201 50.712C449.441 52.376 451.169 54.488 452.385 57.048C453.665 59.608 454.305 62.648 454.305 66.168C454.305 69.752 453.633 72.856 452.289 75.48C450.945 78.104 449.121 80.28 446.817 82.008C444.513 83.672 441.825 84.92 438.753 85.752C435.681 86.584 432.385 87 428.865 87H405.441ZM484.397 73.944H484.589L495.917 40.344H508.781L488.045 93.144C487.085 95.704 486.061 98.008 484.973 100.056C483.885 102.168 482.605 103.96 481.133 105.432C479.661 106.904 477.933 108.024 475.949 108.792C473.965 109.624 471.533 110.04 468.653 110.04C467.373 110.04 466.061 109.944 464.717 109.752C463.437 109.624 462.253 109.432 461.165 109.176L462.509 98.808C463.213 99.064 464.013 99.256 464.909 99.384C465.805 99.576 466.637 99.672 467.405 99.672C469.773 99.672 471.533 99.064 472.685 97.848C473.837 96.632 474.861 94.904 475.757 92.664L478.157 86.52L458.477 40.344H471.821L484.397 73.944ZM526.364 62.712L509.276 40.344H523.676L533.948 54.84L544.22 40.344H558.044L541.244 62.52L559.772 87H545.18L533.756 70.68L521.852 87H507.836L526.364 62.712ZM577.226 87H565.225V40.344H596.522V49.752H577.226V87ZM631.371 56.952C631.371 53.944 630.475 51.736 628.683 50.328C626.891 48.92 624.459 48.216 621.387 48.216C618.955 48.216 616.651 48.696 614.475 49.656C612.299 50.552 610.443 51.736 608.907 53.208L602.667 46.392C605.099 44.088 608.043 42.296 611.499 41.016C615.019 39.672 618.699 39 622.539 39C628.747 39 633.515 40.472 636.843 43.416C640.235 46.296 642.155 50.84 642.603 57.048C642.667 57.944 642.699 58.84 642.699 59.736C642.699 60.632 642.699 61.592 642.699 62.616V77.208C642.699 78.872 642.731 80.568 642.795 82.296C642.859 83.96 642.955 85.528 643.083 87H632.043C631.979 86.04 631.915 85.08 631.851 84.12C631.787 83.096 631.755 82.072 631.755 81.048H631.563C630.027 83.416 627.979 85.208 625.419 86.424C622.923 87.576 620.075 88.152 616.875 88.152C615.019 88.152 613.099 87.896 611.115 87.384C609.195 86.872 607.435 86.072 605.835 84.984C604.235 83.832 602.891 82.36 601.803 80.568C600.779 78.712 600.267 76.44 600.267 73.752C600.267 70.296 601.163 67.544 602.955 65.496C604.811 63.384 607.211 61.784 610.155 60.696C613.163 59.608 616.491 58.904 620.139 58.584C623.851 58.2 627.595 58.008 631.371 58.008V56.952ZM629.643 65.496C627.531 65.496 625.387 65.592 623.211 65.784C621.099 65.912 619.179 66.264 617.451 66.84C615.723 67.352 614.315 68.12 613.227 69.144C612.139 70.168 611.595 71.544 611.595 73.272C611.595 74.488 611.851 75.512 612.363 76.344C612.875 77.112 613.515 77.752 614.283 78.264C615.115 78.776 616.011 79.16 616.971 79.416C617.995 79.608 618.987 79.704 619.947 79.704C623.723 79.704 626.603 78.584 628.587 76.344C630.635 74.104 631.659 71.256 631.659 67.8V65.496H629.643ZM686.354 87L674.354 54.744L661.682 87H648.722L667.73 40.344H681.362L699.218 87H686.354ZM700.056 40.344H741.24V49.848H726.456V87H714.36V49.848H700.056V40.344ZM781.458 58.968C781.33 55.768 780.306 53.08 778.386 50.904C776.466 48.728 773.618 47.64 769.842 47.64C768.05 47.64 766.386 47.96 764.85 48.6C763.378 49.176 762.066 50.008 760.914 51.096C759.826 52.12 758.93 53.336 758.226 54.744C757.586 56.088 757.202 57.496 757.074 58.968H781.458ZM792.786 63.48C792.786 63.992 792.786 64.568 792.786 65.208C792.786 65.784 792.754 66.36 792.69 66.936H756.978C757.042 68.664 757.458 70.264 758.226 71.736C758.994 73.144 759.986 74.392 761.202 75.48C762.418 76.568 763.794 77.432 765.33 78.072C766.93 78.648 768.626 78.936 770.418 78.936C773.298 78.936 775.762 78.328 777.81 77.112C779.858 75.896 781.426 74.456 782.514 72.792L791.058 78.456C788.626 81.784 785.65 84.28 782.13 85.944C778.674 87.544 774.738 88.344 770.322 88.344C766.802 88.344 763.506 87.768 760.434 86.616C757.426 85.464 754.77 83.832 752.466 81.72C750.226 79.608 748.466 77.048 747.186 74.04C745.906 70.968 745.266 67.544 745.266 63.768C745.266 60.056 745.874 56.696 747.09 53.688C748.37 50.616 750.098 47.992 752.274 45.816C754.514 43.64 757.138 41.976 760.146 40.824C763.154 39.608 766.386 39 769.842 39C773.362 39 776.53 39.608 779.346 40.824C782.226 41.976 784.658 43.64 786.642 45.816C788.626 47.928 790.13 50.488 791.154 53.496C792.242 56.504 792.786 59.832 792.786 63.48ZM814.38 110.04H802.284V40.344H813.9V46.968H814.188C815.852 44.664 818.06 42.776 820.812 41.304C823.564 39.832 826.668 39.096 830.124 39.096C833.58 39.096 836.716 39.768 839.532 41.112C842.348 42.392 844.748 44.152 846.732 46.392C848.716 48.568 850.252 51.16 851.34 54.168C852.428 57.112 852.972 60.248 852.972 63.576C852.972 66.904 852.428 70.072 851.34 73.08C850.316 76.024 848.812 78.648 846.828 80.952C844.908 83.192 842.508 84.984 839.628 86.328C836.812 87.608 833.612 88.248 830.028 88.248C827.02 88.248 824.108 87.608 821.292 86.328C818.476 85.048 816.236 83.192 814.572 80.76H814.38V110.04ZM841.068 63.576C841.068 61.656 840.78 59.832 840.204 58.104C839.628 56.312 838.764 54.744 837.612 53.4C836.46 52.056 835.02 51 833.292 50.232C831.628 49.4 829.708 48.984 827.532 48.984C825.484 48.984 823.596 49.4 821.868 50.232C820.204 51 818.764 52.056 817.548 53.4C816.332 54.744 815.372 56.312 814.668 58.104C814.028 59.832 813.708 61.656 813.708 63.576C813.708 65.56 814.028 67.448 814.668 69.24C815.372 70.968 816.332 72.504 817.548 73.848C818.764 75.192 820.204 76.248 821.868 77.016C823.596 77.784 825.484 78.168 827.532 78.168C829.708 78.168 831.628 77.784 833.292 77.016C835.02 76.184 836.46 75.096 837.612 73.752C838.764 72.408 839.628 70.872 840.204 69.144C840.78 67.352 841.068 65.496 841.068 63.576ZM898.23 55.8L874.614 87H862.518V40.344H874.614V70.872L898.23 40.344H910.422V87H898.23V55.8ZM944.265 70.68C942.409 70.68 940.745 70.936 939.273 71.448C937.865 71.96 936.617 72.856 935.529 74.136C934.441 75.352 933.513 77.016 932.745 79.128C932.041 81.24 931.497 83.864 931.113 87H917.769C918.217 83.928 918.889 81.208 919.785 78.84C920.745 76.472 921.833 74.424 923.049 72.696C924.329 70.968 925.705 69.56 927.177 68.472C928.713 67.384 930.249 66.616 931.785 66.168V65.88C930.185 65.688 928.681 65.336 927.273 64.824C925.929 64.312 924.745 63.576 923.721 62.616C922.761 61.592 921.993 60.344 921.417 58.872C920.841 57.336 920.553 55.48 920.553 53.304C920.553 50.808 921.065 48.728 922.089 47.064C923.177 45.4 924.585 44.088 926.313 43.128C928.041 42.104 930.025 41.4 932.265 41.016C934.569 40.568 936.937 40.344 939.369 40.344H961.353V87H949.257V70.68H944.265ZM932.361 55.896C932.361 58.136 933.193 59.576 934.857 60.216C936.521 60.792 938.985 61.08 942.249 61.08H949.257V50.52H942.153C938.697 50.52 936.201 50.84 934.665 51.48C933.129 52.12 932.361 53.592 932.361 55.896Z" fill="#212353"/>
<rect width="88" height="22" fill="#212353"/>
<rect y="114" width="114" height="22" transform="rotate(-90 0 114)" fill="#212353"/>
<path d="M106 74C106 90.0163 93.0163 103 77 103C60.9837 103 48 90.0163 48 74C48 57.9837 60.9837 45 77 45C93.0163 45 106 57.9837 106 74Z" stroke="#212353" stroke-width="22"/>
<rect x="66" y="8" width="22" height="22" fill="#212353"/>
</svg>
